<?xml version="1.0" encoding="UTF-8"?>
<svg id="Layer_2" data-name="Layer 2" xmlns="http://www.w3.org/2000/svg" xmlns:xlink="http://www.w3.org/1999/xlink" viewBox="0 0 1059.18 441.22">
  <defs>
    <style>
      .cls-1 {
        fill: url(#linear-gradient-2);
      }

      .cls-2 {
        fill: #fff;
        font-family: UncutSansVariable-Bold, 'Uncut Sans Variable';
        font-size: 183.7px;
        font-variation-settings: 'wght' 700, 'ital' 0;
      }

      .cls-3 {
        letter-spacing: .1em;
      }

      .cls-4 {
        letter-spacing: .1em;
      }

      .cls-5 {
        letter-spacing: .1em;
      }

      .cls-6 {
        fill: url(#linear-gradient-3);
      }

      .cls-7 {
        fill: url(#linear-gradient);
      }
    </style>
    <linearGradient id="linear-gradient" x1="110.73" y1="283.19" x2="317.11" y2="164.03" gradientUnits="userSpaceOnUse">
      <stop offset="0" stop-color="#2aff8b"/>
      <stop offset="1" stop-color="aqua"/>
    </linearGradient>
    <linearGradient id="linear-gradient-2" x1="13.52" y1="248.39" x2="375.02" y2="39.68" xlink:href="#linear-gradient"/>
    <linearGradient id="linear-gradient-3" x1="52.26" y1="404.86" x2="415.32" y2="195.24" xlink:href="#linear-gradient"/>
  </defs>
  <g id="Layer_2-2" data-name="Layer 2">
    <g>
      <text class="cls-2" transform="translate(516.48 283.45) scale(1.09 1)"><tspan class="cls-4" x="0" y="0">N</tspan><tspan class="cls-5" x="152.84" y="0">S</tspan><tspan class="cls-3" x="283.45" y="0">AI</tspan></text>
      <g>
        <path class="cls-7" d="M260.62,126.54c-1.44,0-2.61,1.17-2.61,2.61v132.99L173.36,127.76c-.48-.76-1.31-1.22-2.21-1.22h-37.28c-1.44,0-2.61,1.17-2.61,2.61v188.92c0,1.44,1.17,2.61,2.61,2.61h33.34c1.44,0,2.61-1.17,2.61-2.61V185.09l84.65,134.37c.48,.76,1.31,1.22,2.21,1.22h37.28c1.44,0,2.61-1.17,2.61-2.61V129.15c0-1.44-1.17-2.61-2.61-2.61h-33.34Z"/>
        <path class="cls-1" d="M5.44,210.05c-3.77,2.94-6,7.74-5.32,13.02,.81,6.25,5.86,11.29,12.1,12.1,5.63,.73,10.72-1.86,13.58-6.08,1.49-2.2,4.06-3.42,6.72-3.42h28.91c2.62,0,5.17,1.17,6.7,3.29,2.92,4.06,7.94,6.5,13.48,5.73,6.28-.88,11.27-6.02,12-12.31,.98-8.55-5.68-15.79-14.03-15.79-4.8,0-9.03,2.39-11.58,6.05-1.81,2.6-4.87,4.04-8.04,4.04H31.37c-2.13,0-4.12-1.1-5.24-2.92-.9-1.46-2.06-2.74-3.42-3.78-2.51-1.93-4.09-4.81-4.09-7.98v-46.79c0-3.57,1.69-6.88,4.46-9.13,3.17-2.59,5.2-6.52,5.2-10.94v-.02c0-1.07,.56-2.06,1.47-2.61L203.15,27.94c2.05-1.23,4.57-1.55,6.79-.67,1.6,.63,3.34,.98,5.16,.98,1.72,0,3.37-.31,4.9-.88,2.26-.84,4.77-.68,6.83,.58l171.54,104.71c.86,.52,1.34,1.47,1.34,2.48v.02c0,7.8,6.32,14.12,14.12,14.12,8.33,0,14.98-7.21,14.04-15.73-.71-6.43-5.89-11.65-12.31-12.41-3.98-.47-7.68,.72-10.5,2.96-.9,.72-2.17,.78-3.16,.17L232.89,21.11c-2.36-1.44-3.71-4.03-3.67-6.79,0-.68-.03-1.37-.12-2.06C228.21,5.49,222.39,.23,215.56,0c-8.01-.26-14.59,6.16-14.59,14.12v.04c0,2.84-1.48,5.47-3.91,6.93L26.09,124.23c-1.01,.61-2.3,.55-3.22-.18-2.83-2.22-6.51-3.39-10.49-2.91-5.81,.71-11.47,6.31-12.23,12.12-.69,5.27,1.54,10.07,5.3,13.01,2.56,2,4.17,4.97,4.17,8.21v47.35c0,3.25-1.62,6.22-4.19,8.22Z"/>
        <path class="cls-6" d="M422.95,299.83c-2.95-2.5-4.71-6.12-4.71-9.98l.07-51.63c0-2.3,1.19-4.42,3.12-5.67,4.35-2.84,7.04-8.01,6.28-13.74-.83-6.28-5.93-11.33-12.22-12.09-5.65-.69-10.73,1.96-13.56,6.23-1.57,2.37-4.26,3.74-7.1,3.74h-28.41c-2.55,0-4.83-1.39-6.2-3.54-2.79-4.39-7.94-7.13-13.66-6.44-6.41,.77-11.57,5.98-12.29,12.39-.95,8.53,5.7,15.75,14.03,15.75,4.71,0,8.87-2.31,11.43-5.85,1.46-2.03,3.73-3.32,6.23-3.32h29.51c2.7,0,5.26,1.25,6.87,3.42,1.01,1.37,2.26,2.54,3.69,3.47,1.99,1.29,3.26,3.42,3.26,5.78l-.07,54.37c0,2.43-1.16,4.76-3.19,6.1-3.82,2.53-6.34,6.85-6.34,11.77v.04c0,2.78-1.47,5.36-3.87,6.77l-167.21,98.05c-1.79,1.05-4.03,.99-5.76-.16-2.23-1.48-4.9-2.34-7.77-2.34s-5.61,.89-7.86,2.4c-1.73,1.16-3.96,1.23-5.76,.19L32.77,317.76c-2.68-1.55-4.42-4.37-4.49-7.46-.01-.53-.05-1.07-.12-1.61-.83-6.27-5.91-11.31-12.19-12.09-9.21-1.14-16.96,6.6-15.82,15.81,.76,6.12,5.58,11.14,11.67,12.13,2.58,.42,5.04,.13,7.25-.69,2.47-.92,5.22-.61,7.5,.71l173.54,100.6c.54,.32,.88,.9,.88,1.53,0,7.61,5.84,14.16,13.44,14.52,8.11,.38,14.81-6.08,14.81-14.11,0-.04,0-.09,0-.13,0-.85,.42-1.65,1.15-2.08l169.53-99.41c3.02-1.77,6.64-2.28,10-1.3,1.95,.57,4.07,.73,6.28,.37,6.08-.99,10.9-6,11.67-12.11,.63-5.05-1.41-9.65-4.89-12.6Z"/>
      </g>
    </g>
  </g>
</svg>